<?xml version="1.0" standalone="no"?>
<!DOCTYPE svg PUBLIC "-//W3C//DTD SVG 20010904//EN"
 "http://www.w3.org/TR/2001/REC-SVG-20010904/DTD/svg10.dtd">
<svg version="1.0" xmlns="http://www.w3.org/2000/svg"
 width="200.000000pt" height="200.000000pt" viewBox="0 0 200.000000 200.000000"
 preserveAspectRatio="xMidYMid meet">

<g transform="translate(0.000000,200.000000) scale(0.100000,-0.100000)"
fill="#000000" stroke="none">
<path d="M895 1860 c-130 -35 -197 -65 -232 -105 -38 -44 -74 -135 -103 -263
-18 -78 -20 -98 -10 -122 7 -18 9 -43 5 -62 -23 -113 -13 -230 37 -430 31
-123 31 -128 14 -147 -11 -12 -22 -49 -29 -93 -9 -66 -8 -80 13 -148 48 -154
97 -220 206 -275 32 -16 75 -43 95 -58 59 -46 94 -46 206 2 113 48 174 98 249
206 53 76 94 179 94 236 0 20 -5 60 -11 90 -12 61 -1 178 25 269 23 76 34 196
24 244 -4 23 -15 88 -24 146 -9 58 -29 143 -46 190 -16 47 -31 99 -34 115 -11
63 -15 74 -40 104 -19 23 -34 31 -58 31 -17 0 -56 10 -86 21 -180 69 -203 73
-295 49z m467 -597 c22 -20 23 -61 2 -91 -40 -58 -134 -69 -202 -25 -60 39
-61 37 73 96 93 41 102 43 127 20z m-494 -34 c41 -16 80 -29 88 -29 31 0 11
-26 -35 -48 -54 -24 -91 -27 -172 -12 -79 15 -102 59 -57 107 27 28 69 24 176
-18z m267 -394 c110 -29 107 -49 -13 -84 -83 -25 -150 -21 -203 11 l-33 20 25
19 c27 22 102 47 139 48 14 1 52 -6 85 -14z"/>
</g>
</svg>
